<svg version="1.1" viewBox="0.0 0.0 800.0 600.0" fill="none" stroke="none" stroke-linecap="square" stroke-miterlimit="10" xmlns:xlink="http://www.w3.org/1999/xlink" xmlns="http://www.w3.org/2000/svg"><clipPath id="p.0"><path d="m0 0l800.0 0l0 600.0l-800.0 0l0 -600.0z" clip-rule="nonzero"/></clipPath><g clip-path="url(#p.0)"><path fill="#000000" fill-opacity="0.0" d="m0 0l800.0 0l0 600.0l-800.0 0z" fill-rule="evenodd"/><path fill="#000000" fill-opacity="0.0" d="m134.32683 307.14l0 0c0 -139.80199 113.33894 -253.13387 253.14961 -253.13387l0 0c67.139435 0 131.52905 26.669384 179.00378 74.14119c47.474792 47.4718 74.14581 111.85739 74.14581 178.99268l0 0c0 139.80197 -113.33893 253.13385 -253.1496 253.13385l0 0c-139.81067 0 -253.14961 -113.33188 -253.14961 -253.13385z" fill-rule="evenodd"/><path stroke="#000000" stroke-width="1.0" stroke-linejoin="round" stroke-linecap="butt" d="m134.32683 307.14l0 0c0 -139.80199 113.33894 -253.13387 253.14961 -253.13387l0 0c67.139435 0 131.52905 26.669384 179.00378 74.14119c47.474792 47.4718 74.14581 111.85739 74.14581 178.99268l0 0c0 139.80197 -113.33893 253.13385 -253.1496 253.13385l0 0c-139.81067 0 -253.14961 -113.33188 -253.14961 -253.13385z" fill-rule="evenodd"/><path fill="#ffffff" d="m293.98438 63.522327l0 0c0 -16.933834 13.72757 -30.661415 30.661407 -30.661415l0 0c8.1319275 0 15.930756 3.2303886 21.680908 8.980518c5.750122 5.7501335 8.980499 13.548985 8.980499 21.680897l0 0c0 16.933834 -13.72757 30.661419 -30.661407 30.661419l0 0c-16.933838 0 -30.661407 -13.727585 -30.661407 -30.661419z" fill-rule="evenodd"/><path stroke="#000000" stroke-width="1.0" stroke-linejoin="round" stroke-linecap="butt" d="m293.98438 63.522327l0 0c0 -16.933834 13.72757 -30.661415 30.661407 -30.661415l0 0c8.1319275 0 15.930756 3.2303886 21.680908 8.980518c5.750122 5.7501335 8.980499 13.548985 8.980499 21.680897l0 0c0 16.933834 -13.72757 30.661419 -30.661407 30.661419l0 0c-16.933838 0 -30.661407 -13.727585 -30.661407 -30.661419z" fill-rule="evenodd"/><path fill="#000000" d="m318.25604 60.322327l-1.953125 0l1.984375 -9.546875l3.890625 0q1.03125 0 1.625 0.25q0.609375 0.25 0.953125 0.8125q0.359375 0.5625 0.359375 1.34375q0 0.71875 -0.28125 1.40625q-0.28125 0.671875 -0.6875 1.09375q-0.40625 0.40625 -0.875 0.625q-0.46875 0.203125 -1.265625 0.3125q-0.453125 0.0625 -1.734375 0.0625l-1.25 0l-0.765625 3.640625zm1.09375 -5.21875l0.609375 0q1.546875 0 2.0625 -0.1875q0.53125 -0.203125 0.828125 -0.625q0.296875 -0.4375 0.296875 -0.953125q0 -0.34375 -0.15625 -0.5625q-0.140625 -0.21875 -0.421875 -0.3125q-0.28125 -0.109375 -1.234375 -0.109375l-1.40625 0l-0.578125 2.75zm6.13974 2.125l1.875 -0.09375q0.03125 0.890625 0.296875 1.203125q0.4375 0.5 1.59375 0.5q0.96875 0 1.390625 -0.34375q0.4375 -0.34375 0.4375 -0.828125q0 -0.421875 -0.359375 -0.71875q-0.25 -0.203125 -1.359375 -0.6875q-1.109375 -0.484375 -1.625 -0.796875q-0.5 -0.328125 -0.796875 -0.84375q-0.296875 -0.515625 -0.296875 -1.203125q0 -1.203125 0.875 -2.0q0.875 -0.796875 2.53125 -0.796875q1.671875 0 2.59375 0.796875q0.921875 0.78125 1.015625 2.09375l-1.890625 0.078125q-0.0625 -0.6875 -0.484375 -1.046875q-0.421875 -0.359375 -1.25 -0.359375q-0.8125 0 -1.171875 0.28125q-0.34375 0.28125 -0.34375 0.71875q0 0.40625 0.328125 0.671875q0.3125 0.28125 1.40625 0.75q1.640625 0.71875 2.09375 1.15625q0.671875 0.65625 0.671875 1.671875q0 1.265625 -1.0 2.15625q-1.0 0.890625 -2.78125 0.890625q-1.234375 0 -2.140625 -0.40625q-0.890625 -0.40625 -1.265625 -1.140625q-0.375 -0.75 -0.34375 -1.703125z" fill-rule="nonzero"/><path fill="#000000" d="m319.6262 79.13483q-0.984375 -1.234375 -1.65625 -2.875q-0.65625 -1.640625 -0.65625 -3.390625q0 -1.546875 0.5 -2.96875q0.578125 -1.640625 1.8125 -3.28125l0.828125 0q-0.78125 1.359375 -1.03125 1.9375q-0.40625 0.890625 -0.625 1.875q-0.28125 1.21875 -0.28125 2.4375q0 3.140625 1.9375 6.265625l-0.828125 0zm2.0477295 -5.015625l1.125 -0.109375q0.140625 0.796875 0.546875 1.15625q0.40625 0.359375 1.03125 0.359375q0.53125 0 0.9375 -0.25q0.421875 -0.25 0.671875 -0.65625q0.265625 -0.421875 0.4375 -1.125q0.171875 -0.703125 0.171875 -1.421875q0 -0.078125 0 -0.234375q-0.359375 0.546875 -0.96875 0.90625q-0.59375 0.34375 -1.3125 0.34375q-1.1875 0 -2.015625 -0.859375q-0.8125 -0.859375 -0.8125 -2.265625q0 -1.453125 0.859375 -2.328125q0.859375 -0.890625 2.140625 -0.890625q0.9375 0 1.703125 0.5q0.78125 0.5 1.171875 1.4375q0.40625 0.921875 0.40625 2.671875q0 1.828125 -0.40625 2.921875q-0.390625 1.078125 -1.171875 1.640625q-0.78125 0.5625 -1.84375 0.5625q-1.109375 0 -1.828125 -0.609375q-0.703125 -0.625 -0.84375 -1.75zm4.796875 -4.21875q0 -1.0 -0.546875 -1.59375q-0.53125 -0.59375 -1.28125 -0.59375q-0.78125 0 -1.375 0.640625q-0.578125 0.640625 -0.578125 1.65625q0 0.90625 0.546875 1.484375q0.5625 0.5625 1.359375 0.5625q0.828125 0 1.34375 -0.5625q0.53125 -0.578125 0.53125 -1.59375zm3.5218506 9.234375l-0.828125 0q1.9375 -3.125 1.9375 -6.265625q0 -1.21875 -0.28125 -2.421875q-0.21875 -0.984375 -0.609375 -1.875q-0.265625 -0.59375 -1.046875 -1.953125l0.828125 0q1.234375 1.640625 1.8125 3.28125q0.5 1.421875 0.5 2.96875q0 1.75 -0.671875 3.390625q-0.671875 1.640625 -1.640625 2.875z" fill-rule="nonzero"/><path fill="#ffffff" d="m394.4012 57.79693l0 0c0 -16.933834 13.7276 -30.661419 30.661438 -30.661419l0 0c8.131897 0 15.930756 3.2303905 21.680878 8.980522c5.7501526 5.7501297 8.98053 13.548981 8.98053 21.680897l0 0c0 16.93383 -13.7276 30.661415 -30.661407 30.661415l0 0c-16.933838 0 -30.661438 -13.727585 -30.661438 -30.661415z" fill-rule="evenodd"/><path stroke="#000000" stroke-width="1.0" stroke-linejoin="round" stroke-linecap="butt" d="m394.4012 57.79693l0 0c0 -16.933834 13.7276 -30.661419 30.661438 -30.661419l0 0c8.131897 0 15.930756 3.2303905 21.680878 8.980522c5.7501526 5.7501297 8.98053 13.548981 8.98053 21.680897l0 0c0 16.93383 -13.7276 30.661415 -30.661407 30.661415l0 0c-16.933838 0 -30.661438 -13.727585 -30.661438 -30.661415z" fill-rule="evenodd"/><path fill="#000000" d="m420.04303 65.409424q-0.984375 -1.234375 -1.65625 -2.8749962q-0.65625 -1.640625 -0.65625 -3.390625q0 -1.546875 0.5 -2.96875q0.578125 -1.640625 1.8125 -3.28125l0.828125 0q-0.78125 1.359375 -1.03125 1.9375q-0.40625 0.890625 -0.625 1.875q-0.28125 1.21875 -0.28125 2.4375q0 3.140625 1.9375 6.265621l-0.828125 0zm1.86026 -5.312496l1.234375 -0.109375q0.140625 0.90625 0.640625 1.359375q0.5 0.453125 1.203125 0.453125q0.84375 0 1.421875 -0.640625q0.59375 -0.640625 0.59375 -1.6875q0 -1.0 -0.5625 -1.578125q-0.5625 -0.59375 -1.484375 -0.59375q-0.5625 0 -1.015625 0.265625q-0.453125 0.25 -0.71875 0.671875l-1.09375 -0.15625l0.921875 -4.890625l4.75 0l0 1.109375l-3.8125 0l-0.515625 2.5625q0.859375 -0.59375 1.796875 -0.59375q1.25 0 2.109375 0.875q0.859375 0.859375 0.859375 2.21875q0 1.296875 -0.75 2.234375q-0.921875 1.15625 -2.5 1.15625q-1.3125 0 -2.140625 -0.71875q-0.8125 -0.734375 -0.9375 -1.9375zm8.506226 5.312496l-0.828125 0q1.9375 -3.1249962 1.9375 -6.265621q0 -1.21875 -0.28125 -2.421875q-0.21875 -0.984375 -0.609375 -1.875q-0.265625 -0.59375 -1.046875 -1.953125l0.828125 0q1.234375 1.640625 1.8125 3.28125q0.5 1.421875 0.5 2.96875q0 1.75 -0.671875 3.390625q-0.671875 1.6406212 -1.640625 2.8749962z" fill-rule="nonzero"/><path fill="#ffffff" d="m503.7261 101.52671l0 0c0 -16.93383 13.72757 -30.661415 30.661407 -30.661415l0 0c8.131897 0 15.930786 3.2303925 21.680908 8.980522c5.750122 5.7501297 8.98053 13.548981 8.98053 21.680893l0 0c0 16.933838 -13.7276 30.661415 -30.661438 30.661415l0 0c-16.933838 0 -30.661407 -13.727577 -30.661407 -30.661415z" fill-rule="evenodd"/><path stroke="#000000" stroke-width="1.0" stroke-linejoin="round" stroke-linecap="butt" d="m503.7261 101.52671l0 0c0 -16.93383 13.72757 -30.661415 30.661407 -30.661415l0 0c8.131897 0 15.930786 3.2303925 21.680908 8.980522c5.750122 5.7501297 8.98053 13.548981 8.98053 21.680893l0 0c0 16.933838 -13.7276 30.661415 -30.661438 30.661415l0 0c-16.933838 0 -30.661407 -13.727577 -30.661407 -30.661415z" fill-rule="evenodd"/><path fill="#000000" d="m525.6617 109.13921q-0.984375 -1.234375 -1.65625 -2.875q-0.65625 -1.640625 -0.65625 -3.390625q0 -1.546875 0.5 -2.96875q0.578125 -1.640625 1.8125 -3.28125l0.828125 0q-0.78125 1.359375 -1.03125 1.9375q-0.40625 0.890625 -0.625 1.875q-0.28125 1.21875 -0.28125 2.4375q0 3.140625 1.9375 6.265625l-0.828125 0zm6.2821045 -2.8125l-1.171875 0l0 -7.46875q-0.421875 0.40625 -1.109375 0.8125q-0.6875 0.40625 -1.234375 0.609375l0 -1.140625q0.984375 -0.453125 1.71875 -1.109375q0.734375 -0.671875 1.03125 -1.28125l0.765625 0l0 9.578125zm2.9906006 -4.703125q0 -1.6875 0.34375 -2.71875q0.359375 -1.03125 1.046875 -1.59375q0.6875 -0.5625 1.71875 -0.5625q0.78125 0 1.359375 0.3125q0.578125 0.296875 0.953125 0.890625q0.375 0.578125 0.59375 1.421875q0.21875 0.828125 0.21875 2.25q0 1.671875 -0.359375 2.703125q-0.34375 1.03125 -1.03125 1.59375q-0.671875 0.5625 -1.734375 0.5625q-1.375 0 -2.15625 -0.984375q-0.953125 -1.1875 -0.953125 -3.875zm1.203125 0q0 2.34375 0.546875 3.125q0.5625 0.78125 1.359375 0.78125q0.8125 0 1.359375 -0.78125q0.5625 -0.78125 0.5625 -3.125q0 -2.359375 -0.5625 -3.125q-0.546875 -0.78125 -1.359375 -0.78125q-0.8125 0 -1.296875 0.6875q-0.609375 0.875 -0.609375 3.21875zm7.3031006 7.515625l-0.828125 0q1.9375 -3.125 1.9375 -6.265625q0 -1.21875 -0.28125 -2.421875q-0.21875 -0.984375 -0.609375 -1.875q-0.265625 -0.59375 -1.046875 -1.953125l0.828125 0q1.234375 1.640625 1.8125 3.28125q0.5 1.421875 0.5 2.96875q0 1.75 -0.671875 3.390625q-0.671875 1.640625 -1.640625 2.875z" fill-rule="nonzero"/><path fill="#ffffff" d="m570.76447 172.92542l0 0c0 -16.933823 13.7276 -30.661407 30.661438 -30.661407l0 0c8.131897 0 15.930725 3.2303772 21.680908 8.980515c5.750122 5.7501373 8.98053 13.548981 8.98053 21.680893l0 0c0 16.933838 -13.7276 30.661423 -30.661438 30.661423l0 0c-16.933838 0 -30.661438 -13.727585 -30.661438 -30.661423z" fill-rule="evenodd"/><path stroke="#000000" stroke-width="1.0" stroke-linejoin="round" stroke-linecap="butt" d="m570.76447 172.92542l0 0c0 -16.933823 13.7276 -30.661407 30.661438 -30.661407l0 0c8.131897 0 15.930725 3.2303772 21.680908 8.980515c5.750122 5.7501373 8.98053 13.548981 8.98053 21.680893l0 0c0 16.933838 -13.7276 30.661423 -30.661438 30.661423l0 0c-16.933838 0 -30.661438 -13.727585 -30.661438 -30.661423z" fill-rule="evenodd"/><path fill="#000000" d="m599.6216 166.28792l1.984375 0.296875q-0.578125 1.609375 -1.734375 2.46875q-1.15625 0.84375 -2.71875 0.84375q-1.75 0 -2.734375 -1.046875q-0.984375 -1.0625 -0.984375 -3.0625q0 -1.640625 0.65625 -2.984375q0.65625 -1.34375 1.828125 -2.0625q1.171875 -0.71875 2.5625 -0.71875q1.546875 0 2.5 0.828125q0.953125 0.828125 1.125 2.265625l-1.875 0.171875q-0.15625 -0.828125 -0.609375 -1.203125q-0.4375 -0.375 -1.1875 -0.375q-0.8125 0 -1.515625 0.5q-0.703125 0.5 -1.125 1.546875q-0.421875 1.046875 -0.421875 2.09375q0 1.140625 0.546875 1.765625q0.546875 0.625 1.359375 0.625q0.765625 0 1.390625 -0.484375q0.640625 -0.5 0.953125 -1.46875zm2.718872 3.4375l1.984375 -9.546875l7.078125 0l-0.328125 1.59375l-5.109375 0l-0.453125 2.171875l4.9375 0l-0.328125 1.59375l-4.9375 0l-0.609375 2.59375l5.5625 0l-0.34375 1.59375l-7.453125 0z" fill-rule="nonzero"/><path fill="#000000" d="m596.4063 188.53792q-0.984375 -1.234375 -1.65625 -2.875q-0.65625 -1.640625 -0.65625 -3.390625q0 -1.546875 0.5 -2.96875q0.578125 -1.640625 1.8125 -3.28125l0.828125 0q-0.78125 1.359375 -1.03125 1.9375q-0.40625 0.890625 -0.625 1.875q-0.28125 1.21875 -0.28125 2.4375q0 3.140625 1.9375 6.265625l-0.828125 0zm1.8602295 -5.3125l1.234375 -0.109375q0.140625 0.90625 0.640625 1.359375q0.5 0.453125 1.203125 0.453125q0.84375 0 1.421875 -0.640625q0.59375 -0.640625 0.59375 -1.6875q0 -1.0 -0.5625 -1.578125q-0.5625 -0.59375 -1.484375 -0.59375q-0.5625 0 -1.015625 0.265625q-0.453125 0.25 -0.71875 0.671875l-1.09375 -0.15625l0.921875 -4.890625l4.75 0l0 1.109375l-3.8125 0l-0.515625 2.5625q0.859375 -0.59375 1.796875 -0.59375q1.25 0 2.109375 0.875q0.859375 0.859375 0.859375 2.21875q0 1.296875 -0.75 2.234375q-0.921875 1.15625 -2.5 1.15625q-1.3125 0 -2.140625 -0.71875q-0.8125 -0.734375 -0.9375 -1.9375zm8.506226 5.3125l-0.828125 0q1.9375 -3.125 1.9375 -6.265625q0 -1.21875 -0.28125 -2.421875q-0.21875 -0.984375 -0.609375 -1.875q-0.265625 -0.59375 -1.046875 -1.953125l0.828125 0q1.234375 1.640625 1.8125 3.28125q0.5 1.421875 0.5 2.96875q0 1.75 -0.671875 3.390625q-0.671875 1.640625 -1.640625 2.875z" fill-rule="nonzero"/><path fill="#ffffff" d="m601.14685 253.45644l0 0c0 -16.933823 13.7276 -30.661407 30.661438 -30.661407l0 0c8.131897 0 15.930725 3.2303772 21.680908 8.980515c5.750122 5.7501373 8.98053 13.548981 8.98053 21.680893l0 0c0 16.933823 -13.7276 30.661423 -30.661438 30.661423l0 0c-16.933838 0 -30.661438 -13.7276 -30.661438 -30.661423z" fill-rule="evenodd"/><path stroke="#000000" stroke-width="1.0" stroke-linejoin="round" stroke-linecap="butt" d="m601.14685 253.45644l0 0c0 -16.933823 13.7276 -30.661407 30.661438 -30.661407l0 0c8.131897 0 15.930725 3.2303772 21.680908 8.980515c5.750122 5.7501373 8.98053 13.548981 8.98053 21.680893l0 0c0 16.933823 -13.7276 30.661423 -30.661438 30.661423l0 0c-16.933838 0 -30.661438 -13.7276 -30.661438 -30.661423z" fill-rule="evenodd"/><path fill="#000000" d="m626.7887 261.06894q-0.984375 -1.234375 -1.65625 -2.875q-0.65625 -1.640625 -0.65625 -3.390625q0 -1.546875 0.5 -2.96875q0.578125 -1.640625 1.8125 -3.28125l0.828125 0q-0.78125 1.359375 -1.03125 1.9375q-0.40625 0.890625 -0.625 1.875q-0.28125 1.21875 -0.28125 2.4375q0 3.140625 1.9375 6.265625l-0.828125 0zm8.0164795 -3.9375l0 1.125l-6.296875 0q-0.015625 -0.421875 0.140625 -0.8125q0.234375 -0.640625 0.765625 -1.265625q0.53125 -0.625 1.53125 -1.453125q1.5625 -1.265625 2.109375 -2.015625q0.546875 -0.75 0.546875 -1.40625q0 -0.703125 -0.5 -1.171875q-0.5 -0.484375 -1.296875 -0.484375q-0.859375 0 -1.375 0.515625q-0.5 0.5 -0.5 1.390625l-1.203125 -0.109375q0.125 -1.359375 0.921875 -2.0625q0.8125 -0.703125 2.171875 -0.703125q1.375 0 2.171875 0.765625q0.8125 0.75 0.8125 1.875q0 0.578125 -0.234375 1.140625q-0.234375 0.546875 -0.78125 1.15625q-0.546875 0.609375 -1.8125 1.671875q-1.046875 0.890625 -1.359375 1.21875q-0.296875 0.3125 -0.484375 0.625l4.671875 0zm2.3499756 3.9375l-0.828125 0q1.9375 -3.125 1.9375 -6.265625q0 -1.21875 -0.28125 -2.421875q-0.21875 -0.984375 -0.609375 -1.875q-0.265625 -0.59375 -1.046875 -1.953125l0.828125 0q1.234375 1.640625 1.8125 3.28125q0.5 1.421875 0.5 2.96875q0 1.75 -0.671875 3.390625q-0.671875 1.640625 -1.640625 2.875z" fill-rule="nonzero"/><path fill="#ffffff" d="m408.39856 549.32385l0 0c0 -16.933838 13.72757 -30.661438 30.661407 -30.661438l0 0c8.1319275 0 15.930756 3.2304077 21.680908 8.98053c5.750122 5.750122 8.980499 13.54895 8.980499 21.680908l0 0c0 16.933838 -13.72757 30.661377 -30.661407 30.661377l0 0c-16.933838 0 -30.661407 -13.727539 -30.661407 -30.661377z" fill-rule="evenodd"/><path stroke="#000000" stroke-width="1.0" stroke-linejoin="round" stroke-linecap="butt" d="m408.39856 549.32385l0 0c0 -16.933838 13.72757 -30.661438 30.661407 -30.661438l0 0c8.1319275 0 15.930756 3.2304077 21.680908 8.98053c5.750122 5.750122 8.980499 13.54895 8.980499 21.680908l0 0c0 16.933838 -13.72757 30.661377 -30.661407 30.661377l0 0c-16.933838 0 -30.661407 -13.727539 -30.661407 -30.661377z" fill-rule="evenodd"/><path fill="#000000" d="m434.04037 556.93634q-0.9844055 -1.234375 -1.6562805 -2.875q-0.65625 -1.640625 -0.65625 -3.390625q0 -1.546875 0.5 -2.96875q0.578125 -1.640625 1.8125305 -3.28125l0.828125 0q-0.78125 1.359375 -1.03125 1.9375q-0.40625 0.890625 -0.6250305 1.875q-0.28125 1.21875 -0.28125 2.4375q0 3.140625 1.9375305 6.265625l-0.828125 0zm1.8758545 -5.328125l1.171875 -0.15625q0.203125 1.0 0.6875 1.4375q0.484375 0.4375 1.171875 0.4375q0.828125 0 1.390625 -0.578125q0.578125 -0.578125 0.578125 -1.421875q0 -0.796875 -0.53125 -1.3125q-0.515625 -0.53125 -1.328125 -0.53125q-0.34375 0 -0.828125 0.125l0.125 -1.03125q0.125 0.015625 0.1875 0.015625q0.75 0 1.34375 -0.390625q0.609375 -0.390625 0.609375 -1.203125q0 -0.640625 -0.4375 -1.0625q-0.4375 -0.421875 -1.125 -0.421875q-0.6875 0 -1.140625 0.4375q-0.453125 0.421875 -0.59375 1.28125l-1.171875 -0.21875q0.21875 -1.171875 0.984375 -1.8125q0.765625 -0.65625 1.890625 -0.65625q0.78125 0 1.4375 0.34375q0.65625 0.328125 1.0 0.90625q0.359375 0.578125 0.359375 1.234375q0 0.609375 -0.34375 1.125q-0.328125 0.5 -0.96875 0.796875q0.84375 0.203125 1.3125 0.828125q0.46875 0.609375 0.46875 1.53125q0 1.25 -0.921875 2.125q-0.90625 0.859375 -2.296875 0.859375q-1.25 0 -2.09375 -0.75q-0.828125 -0.75 -0.9375 -1.9375zm8.490601 5.328125l-0.828125 0q1.9375 -3.125 1.9375 -6.265625q0 -1.21875 -0.28125 -2.421875q-0.21875 -0.984375 -0.609375 -1.875q-0.265625 -0.59375 -1.046875 -1.953125l0.828125 0q1.234375 1.640625 1.8125 3.28125q0.5 1.421875 0.5 2.96875q0 1.75 -0.671875 3.390625q-0.671875 1.640625 -1.640625 2.875z" fill-rule="nonzero"/><path fill="#ffffff" d="m503.72592 512.65607l0 0c0 -16.933838 13.72757 -30.661438 30.661407 -30.661438l0 0c8.131897 0 15.930786 3.2304077 21.680908 8.98053c5.750122 5.750122 8.98053 13.548981 8.98053 21.680908l0 0c0 16.933838 -13.7276 30.661377 -30.661438 30.661377l0 0c-16.933838 0 -30.661407 -13.727539 -30.661407 -30.661377z" fill-rule="evenodd"/><path stroke="#000000" stroke-width="1.0" stroke-linejoin="round" stroke-linecap="butt" d="m503.72592 512.65607l0 0c0 -16.933838 13.72757 -30.661438 30.661407 -30.661438l0 0c8.131897 0 15.930786 3.2304077 21.680908 8.98053c5.750122 5.750122 8.98053 13.548981 8.98053 21.680908l0 0c0 16.933838 -13.7276 30.661377 -30.661438 30.661377l0 0c-16.933838 0 -30.661407 -13.727539 -30.661407 -30.661377z" fill-rule="evenodd"/><path fill="#000000" d="m529.36774 520.26855q-0.984375 -1.234375 -1.65625 -2.875q-0.65625 -1.640625 -0.65625 -3.390625q0 -1.546875 0.5 -2.96875q0.578125 -1.640625 1.8125 -3.28125l0.828125 0q-0.78125 1.359375 -1.03125 1.9375q-0.40625 0.890625 -0.625 1.875q-0.28125 1.21875 -0.28125 2.4375q0 3.140625 1.9375 6.265625l-0.828125 0zm1.8758545 -5.328125l1.171875 -0.15625q0.203125 1.0 0.6875 1.4375q0.484375 0.4375 1.171875 0.4375q0.828125 0 1.390625 -0.578125q0.578125 -0.578125 0.578125 -1.421875q0 -0.796875 -0.53125 -1.3125q-0.515625 -0.53125 -1.328125 -0.53125q-0.34375 0 -0.828125 0.125l0.125 -1.03125q0.125 0.015625 0.1875 0.015625q0.75 0 1.34375 -0.390625q0.609375 -0.390625 0.609375 -1.203125q0 -0.640625 -0.4375 -1.0625q-0.4375 -0.421875 -1.125 -0.421875q-0.6875 0 -1.140625 0.4375q-0.453125 0.421875 -0.59375 1.28125l-1.171875 -0.21875q0.21875 -1.171875 0.984375 -1.8125q0.765625 -0.65625 1.890625 -0.65625q0.78125 0 1.4375 0.34375q0.65625 0.328125 1.0 0.90625q0.359375 0.578125 0.359375 1.234375q0 0.609375 -0.34375 1.125q-0.328125 0.5 -0.96875 0.796875q0.84375 0.203125 1.3125 0.828125q0.46875 0.609375 0.46875 1.53125q0 1.25 -0.921875 2.125q-0.90625 0.859375 -2.296875 0.859375q-1.25 0 -2.09375 -0.75q-0.828125 -0.75 -0.9375 -1.9375zm8.490601 5.328125l-0.828125 0q1.9375 -3.125 1.9375 -6.265625q0 -1.21875 -0.28125 -2.421875q-0.21875 -0.984375 -0.609375 -1.875q-0.265625 -0.59375 -1.046875 -1.953125l0.828125 0q1.234375 1.640625 1.8125 3.28125q0.5 1.421875 0.5 2.96875q0 1.75 -0.671875 3.390625q-0.671875 1.640625 -1.640625 2.875z" fill-rule="nonzero"/><path fill="#ffffff" d="m576.7433 435.50934l0 0c0 -16.933807 13.7276 -30.661407 30.661438 -30.661407l0 0c8.131897 0 15.930725 3.2303772 21.680847 8.98053c5.750183 5.750122 8.98053 13.548981 8.98053 21.680878l0 0c0 16.933838 -13.727539 30.661438 -30.661377 30.661438l0 0c-16.933838 0 -30.661438 -13.7276 -30.661438 -30.661438z" fill-rule="evenodd"/><path stroke="#000000" stroke-width="1.0" stroke-linejoin="round" stroke-linecap="butt" d="m576.7433 435.50934l0 0c0 -16.933807 13.7276 -30.661407 30.661438 -30.661407l0 0c8.131897 0 15.930725 3.2303772 21.680847 8.98053c5.750183 5.750122 8.98053 13.548981 8.98053 21.680878l0 0c0 16.933838 -13.727539 30.661438 -30.661377 30.661438l0 0c-16.933838 0 -30.661438 -13.7276 -30.661438 -30.661438z" fill-rule="evenodd"/><path fill="#000000" d="m604.90454 428.04373l-3.6875 0l-0.890625 4.265625l-1.96875 0l2.0 -9.546875l1.953125 0l-0.765625 3.6875l3.6875 0l0.78125 -3.6875l1.953125 0l-1.984375 9.546875l-1.96875 0l0.890625 -4.265625zm3.031433 4.265625l2.0 -9.546875l3.265625 0q1.0625 0 1.484375 0.078125q0.703125 0.09375 1.1875 0.390625q0.484375 0.28125 0.734375 0.78125q0.265625 0.484375 0.265625 1.078125q0 0.78125 -0.453125 1.375q-0.4375 0.578125 -1.359375 0.875q0.734375 0.203125 1.140625 0.71875q0.421875 0.515625 0.421875 1.171875q0 0.859375 -0.5 1.640625q-0.484375 0.765625 -1.34375 1.109375q-0.859375 0.328125 -2.34375 0.328125l-4.5 0zm3.15625 -5.6875l1.5 0q1.0 0 1.4375 -0.140625q0.453125 -0.140625 0.671875 -0.46875q0.21875 -0.328125 0.21875 -0.703125q0 -0.359375 -0.21875 -0.59375q-0.203125 -0.234375 -0.578125 -0.3125q-0.21875 -0.046875 -1.03125 -0.046875l-1.53125 0l-0.46875 2.265625zm-0.875 4.15625l1.90625 0q1.1875 0 1.59375 -0.15625q0.40625 -0.15625 0.640625 -0.5q0.25 -0.359375 0.25 -0.75q0 -0.46875 -0.359375 -0.78125q-0.34375 -0.3125 -1.15625 -0.3125l-2.34375 0l-0.53125 2.5z" fill-rule="nonzero"/><path fill="#000000" d="m602.3851 451.12186q-0.984375 -1.234375 -1.65625 -2.875q-0.65625 -1.640625 -0.65625 -3.390625q0 -1.546875 0.5 -2.96875q0.578125 -1.640625 1.8125 -3.28125l0.828125 0q-0.78125 1.359375 -1.03125 1.9375q-0.40625 0.890625 -0.625 1.875q-0.28125 1.21875 -0.28125 2.4375q0 3.140625 1.9375 6.265625l-0.828125 0zm1.8602905 -5.3125l1.234375 -0.109375q0.140625 0.90625 0.640625 1.359375q0.5 0.453125 1.203125 0.453125q0.84375 0 1.421875 -0.640625q0.59375 -0.640625 0.59375 -1.6875q0 -1.0 -0.5625 -1.578125q-0.5625 -0.59375 -1.484375 -0.59375q-0.5625 0 -1.015625 0.265625q-0.453125 0.25 -0.71875 0.671875l-1.09375 -0.15625l0.921875 -4.890625l4.75 0l0 1.109375l-3.8125 0l-0.515625 2.5625q0.859375 -0.59375 1.796875 -0.59375q1.25 0 2.109375 0.875q0.859375 0.859375 0.859375 2.21875q0 1.296875 -0.75 2.234375q-0.921875 1.15625 -2.5 1.15625q-1.3125 0 -2.140625 -0.71875q-0.8125 -0.734375 -0.9375 -1.9375zm8.506226 5.3125l-0.828125 0q1.9375 -3.125 1.9375 -6.265625q0 -1.21875 -0.28125 -2.421875q-0.21875 -0.984375 -0.609375 -1.875q-0.265625 -0.59375 -1.046875 -1.953125l0.828125 0q1.234375 1.640625 1.8125 3.28125q0.5 1.421875 0.5 2.96875q0 1.75 -0.671875 3.390625q-0.671875 1.640625 -1.640625 2.875z" fill-rule="nonzero"/><path fill="#ffffff" d="m609.4082 347.98483l0 0c0 -16.933838 13.7276 -30.661407 30.661438 -30.661407l0 0c8.131897 0 15.930786 3.2303772 21.680908 8.980499c5.750122 5.7501526 8.98053 13.549011 8.98053 21.680908l0 0c0 16.933838 -13.7276 30.661407 -30.661438 30.661407l0 0c-16.933838 0 -30.661438 -13.72757 -30.661438 -30.661407z" fill-rule="evenodd"/><path stroke="#000000" stroke-width="1.0" stroke-linejoin="round" stroke-linecap="butt" d="m609.4082 347.98483l0 0c0 -16.933838 13.7276 -30.661407 30.661438 -30.661407l0 0c8.131897 0 15.930786 3.2303772 21.680908 8.980499c5.750122 5.7501526 8.98053 13.549011 8.98053 21.680908l0 0c0 16.933838 -13.7276 30.661407 -30.661438 30.661407l0 0c-16.933838 0 -30.661438 -13.72757 -30.661438 -30.661407z" fill-rule="evenodd"/><path fill="#000000" d="m631.8386 355.59732q-0.984375 -1.234375 -1.65625 -2.875q-0.65625 -1.640625 -0.65625 -3.390625q0 -1.546875 0.5 -2.96875q0.578125 -1.640625 1.8125 -3.28125l0.828125 0q-0.78125 1.359375 -1.03125 1.9375q-0.40625 0.890625 -0.625 1.875q-0.28125 1.21875 -0.28125 2.4375q0 3.140625 1.9375 6.265625l-0.828125 0zm6.2821045 -2.8125l-1.171875 0l0 -7.46875q-0.421875 0.40625 -1.109375 0.8125q-0.6875 0.40625 -1.234375 0.609375l0 -1.140625q0.984375 -0.453125 1.71875 -1.109375q0.734375 -0.671875 1.03125 -1.28125l0.765625 0l0 9.578125zm6.4229126 0l-1.171875 0l0 -7.46875q-0.421875 0.40625 -1.109375 0.8125q-0.6875 0.40625 -1.234375 0.609375l0 -1.140625q0.984375 -0.453125 1.71875 -1.109375q0.734375 -0.671875 1.03125 -1.28125l0.765625 0l0 9.578125zm4.0843506 2.8125l-0.828125 0q1.9375 -3.125 1.9375 -6.265625q0 -1.21875 -0.28125 -2.421875q-0.21875 -0.984375 -0.609375 -1.875q-0.265625 -0.59375 -1.046875 -1.953125l0.828125 0q1.234375 1.640625 1.8125 3.28125q0.5 1.421875 0.5 2.96875q0 1.75 -0.671875 3.390625q-0.671875 1.640625 -1.640625 2.875z" fill-rule="nonzero"/><path fill="#ffffff" d="m104.732285 360.51102l0 0c0 -16.933838 13.727585 -30.661438 30.661423 -30.661438l0 0c8.131912 0 15.930756 3.2304077 21.680893 8.98053c5.750122 5.750122 8.980515 13.548981 8.980515 21.680908l0 0c0 16.933838 -13.727585 30.661407 -30.661407 30.661407l0 0c-16.933838 0 -30.661423 -13.72757 -30.661423 -30.661407z" fill-rule="evenodd"/><path stroke="#000000" stroke-width="1.0" stroke-linejoin="round" stroke-linecap="butt" d="m104.732285 360.51102l0 0c0 -16.933838 13.727585 -30.661438 30.661423 -30.661438l0 0c8.131912 0 15.930756 3.2304077 21.680893 8.98053c5.750122 5.750122 8.980515 13.548981 8.980515 21.680908l0 0c0 16.933838 -13.727585 30.661407 -30.661407 30.661407l0 0c-16.933838 0 -30.661423 -13.72757 -30.661423 -30.661407z" fill-rule="evenodd"/><path fill="#000000" d="m127.39377 357.311l2.0 -9.546875l6.6875 0l-0.34375 1.59375l-4.71875 0l-0.484375 2.296875l4.625 0l-0.328125 1.59375l-4.625 0l-0.84375 4.0625l-1.96875 0zm12.938232 0l-2.09375 0l-1.703125 -9.546875l1.953125 0l1.203125 7.21875l3.953125 -7.21875l1.953125 0l-5.265625 9.546875z" fill-rule="nonzero"/><path fill="#000000" d="m130.3741 376.1235q-0.984375 -1.234375 -1.65625 -2.875q-0.65625 -1.640625 -0.65625 -3.390625q0 -1.546875 0.5 -2.96875q0.578125 -1.640625 1.8125 -3.28125l0.828125 0q-0.78125 1.359375 -1.03125 1.9375q-0.40625 0.890625 -0.625 1.875q-0.28125 1.21875 -0.28125 2.4375q0 3.140625 1.9375 6.265625l-0.828125 0zm3.6727448 -7.984375q-0.734375 -0.265625 -1.09375 -0.765625q-0.34375 -0.5 -0.34375 -1.1875q0 -1.03125 0.75 -1.734375q0.75 -0.71875 1.984375 -0.71875q1.25 0 2.015625 0.734375q0.765625 0.71875 0.765625 1.75q0 0.671875 -0.359375 1.171875q-0.34375 0.484375 -1.046875 0.75q0.875 0.28125 1.328125 0.921875q0.46875 0.640625 0.46875 1.515625q0 1.234375 -0.875 2.0625q-0.859375 0.828125 -2.265625 0.828125q-1.421875 0 -2.28125 -0.828125q-0.859375 -0.84375 -0.859375 -2.09375q0 -0.921875 0.46875 -1.546875q0.46875 -0.640625 1.34375 -0.859375zm-0.234375 -1.984375q0 0.671875 0.4375 1.109375q0.4375 0.421875 1.125 0.421875q0.671875 0 1.109375 -0.421875q0.4375 -0.421875 0.4375 -1.046875q0 -0.640625 -0.453125 -1.078125q-0.4375 -0.4375 -1.109375 -0.4375q-0.671875 0 -1.109375 0.4375q-0.4375 0.421875 -0.4375 1.015625zm-0.375 4.40625q0 0.5 0.234375 0.96875q0.234375 0.46875 0.703125 0.734375q0.46875 0.25 1.015625 0.25q0.828125 0 1.375 -0.53125q0.546875 -0.546875 0.546875 -1.390625q0 -0.84375 -0.5625 -1.390625q-0.5625 -0.5625 -1.40625 -0.5625q-0.828125 0 -1.375 0.546875q-0.53125 0.546875 -0.53125 1.375zm7.3031006 5.5625l-0.828125 0q1.9375 -3.125 1.9375 -6.265625q0 -1.21875 -0.28125 -2.421875q-0.21875 -0.984375 -0.609375 -1.875q-0.265625 -0.59375 -1.046875 -1.953125l0.828125 0q1.234375 1.640625 1.8125 3.28125q0.5 1.421875 0.5 2.96875q0 1.75 -0.671875 3.390625q-0.671875 1.640625 -1.640625 2.875z" fill-rule="nonzero"/><path fill="#ffffff" d="m143.23268 451.33264l0 0c0 -16.933838 13.727585 -30.661438 30.661407 -30.661438l0 0c8.131912 0 15.930771 3.2304077 21.680908 8.98053c5.750122 5.750122 8.980515 13.548981 8.980515 21.680908l0 0c0 16.933807 -13.727585 30.661407 -30.661423 30.661407l0 0c-16.933823 0 -30.661407 -13.7276 -30.661407 -30.661407z" fill-rule="evenodd"/><path stroke="#000000" stroke-width="1.0" stroke-linejoin="round" stroke-linecap="butt" d="m143.23268 451.33264l0 0c0 -16.933838 13.727585 -30.661438 30.661407 -30.661438l0 0c8.131912 0 15.930771 3.2304077 21.680908 8.98053c5.750122 5.750122 8.980515 13.548981 8.980515 21.680908l0 0c0 16.933807 -13.727585 30.661407 -30.661423 30.661407l0 0c-16.933823 0 -30.661407 -13.7276 -30.661407 -30.661407z" fill-rule="evenodd"/><path fill="#000000" d="m168.87448 458.94513q-0.984375 -1.234375 -1.65625 -2.875q-0.65625 -1.640625 -0.65625 -3.390625q0 -1.546875 0.5 -2.96875q0.578125 -1.640625 1.8125 -3.28125l0.828125 0q-0.78125 1.359375 -1.03125 1.9375q-0.40625 0.890625 -0.625 1.875q-0.28125 1.21875 -0.28125 2.4375q0 3.140625 1.9375 6.265625l-0.828125 0zm7.9383698 -10.015625l-1.15625 0.09375q-0.15625 -0.6875 -0.4375 -1.0q-0.484375 -0.5 -1.171875 -0.5q-0.5625 0 -0.984375 0.3125q-0.5625 0.390625 -0.890625 1.171875q-0.3125 0.765625 -0.3125 2.203125q0.421875 -0.640625 1.03125 -0.953125q0.609375 -0.3125 1.28125 -0.3125q1.171875 0 1.984375 0.859375q0.828125 0.859375 0.828125 2.234375q0 0.890625 -0.390625 1.671875q-0.375 0.765625 -1.0625 1.171875q-0.671875 0.40625 -1.53125 0.40625q-1.46875 0 -2.390625 -1.0625q-0.921875 -1.078125 -0.921875 -3.5625q0 -2.765625 1.015625 -4.015625q0.90625 -1.09375 2.40625 -1.09375q1.125 0 1.84375 0.640625q0.71875 0.625 0.859375 1.734375zm-4.78125 4.109375q0 0.609375 0.25 1.171875q0.265625 0.546875 0.71875 0.84375q0.46875 0.28125 0.984375 0.28125q0.734375 0 1.265625 -0.59375q0.546875 -0.609375 0.546875 -1.640625q0 -0.984375 -0.53125 -1.546875q-0.53125 -0.578125 -1.328125 -0.578125q-0.796875 0 -1.359375 0.578125q-0.546875 0.5625 -0.546875 1.484375zm7.2093506 5.90625l-0.828125 0q1.9375 -3.125 1.9375 -6.265625q0 -1.21875 -0.28125 -2.421875q-0.21875 -0.984375 -0.609375 -1.875q-0.265625 -0.59375 -1.046875 -1.953125l0.828125 0q1.234375 1.640625 1.8125 3.28125q0.5 1.421875 0.5 2.96875q0 1.75 -0.671875 3.390625q-0.671875 1.640625 -1.640625 2.875z" fill-rule="nonzero"/><path fill="#ffffff" d="m214.74257 518.38275l0 0c0 -16.933807 13.727585 -30.661407 30.661423 -30.661407l0 0c8.131912 0 15.930756 3.2304077 21.680878 8.98053c5.7501526 5.750122 8.98053 13.548981 8.98053 21.680878l0 0c0 16.933838 -13.72757 30.661438 -30.661407 30.661438l0 0c-16.933838 0 -30.661423 -13.7276 -30.661423 -30.661438z" fill-rule="evenodd"/><path stroke="#000000" stroke-width="1.0" stroke-linejoin="round" stroke-linecap="butt" d="m214.74257 518.38275l0 0c0 -16.933807 13.727585 -30.661407 30.661423 -30.661407l0 0c8.131912 0 15.930756 3.2304077 21.680878 8.98053c5.7501526 5.750122 8.98053 13.548981 8.98053 21.680878l0 0c0 16.933838 -13.72757 30.661438 -30.661407 30.661438l0 0c-16.933838 0 -30.661423 -13.7276 -30.661423 -30.661438z" fill-rule="evenodd"/><path fill="#000000" d="m240.38438 525.9953q-0.984375 -1.234375 -1.65625 -2.875q-0.65625 -1.640625 -0.65625 -3.390625q0 -1.546875 0.5 -2.96875q0.578125 -1.640625 1.8125 -3.28125l0.828125 0q-0.78125 1.359375 -1.03125 1.9375q-0.40625 0.890625 -0.625 1.875q-0.28125 1.21875 -0.28125 2.4375q0 3.140625 1.9375 6.265625l-0.828125 0zm6.2821198 -2.8125l-1.171875 0l0 -7.46875q-0.421875 0.40625 -1.109375 0.8125q-0.6875 0.40625 -1.234375 0.609375l0 -1.140625q0.984375 -0.453125 1.71875 -1.109375q0.734375 -0.671875 1.03125 -1.28125l0.765625 0l0 9.578125zm4.0843506 2.8125l-0.828125 0q1.9375 -3.125 1.9375 -6.265625q0 -1.21875 -0.28125 -2.421875q-0.21875 -0.984375 -0.609375 -1.875q-0.265625 -0.59375 -1.046875 -1.953125l0.828125 0q1.234375 1.640625 1.8125 3.28125q0.5 1.421875 0.5 2.96875q0 1.75 -0.671875 3.390625q-0.671875 1.640625 -1.640625 2.875z" fill-rule="nonzero"/><path fill="#ffffff" d="m138.69191 179.71167l0 0c0 -16.933823 13.727585 -30.661407 30.661423 -30.661407l0 0c8.131912 0 15.930756 3.2303772 21.680893 8.980515c5.7501373 5.7501373 8.980515 13.548981 8.980515 21.680893l0 0c0 16.933838 -13.727585 30.661423 -30.661407 30.661423l0 0c-16.933838 0 -30.661423 -13.727585 -30.661423 -30.661423z" fill-rule="evenodd"/><path stroke="#000000" stroke-width="1.0" stroke-linejoin="round" stroke-linecap="butt" d="m138.69191 179.71167l0 0c0 -16.933823 13.727585 -30.661407 30.661423 -30.661407l0 0c8.131912 0 15.930756 3.2303772 21.680893 8.980515c5.7501373 5.7501373 8.980515 13.548981 8.980515 21.680893l0 0c0 16.933838 -13.727585 30.661423 -30.661407 30.661423l0 0c-16.933838 0 -30.661423 -13.727585 -30.661423 -30.661423z" fill-rule="evenodd"/><path fill="#000000" d="m164.33372 187.32417q-0.984375 -1.234375 -1.65625 -2.875q-0.65625 -1.640625 -0.65625 -3.390625q0 -1.546875 0.5 -2.96875q0.578125 -1.640625 1.8125 -3.28125l0.828125 0q-0.78125 1.359375 -1.03125 1.9375q-0.40625 0.890625 -0.625 1.875q-0.28125 1.21875 -0.28125 2.4375q0 3.140625 1.9375 6.265625l-0.828125 0zm1.8758698 -5.328125l1.171875 -0.15625q0.203125 1.0 0.6875 1.4375q0.484375 0.4375 1.171875 0.4375q0.828125 0 1.390625 -0.578125q0.578125 -0.578125 0.578125 -1.421875q0 -0.796875 -0.53125 -1.3125q-0.515625 -0.53125 -1.328125 -0.53125q-0.34375 0 -0.828125 0.125l0.125 -1.03125q0.125 0.015625 0.1875 0.015625q0.75 0 1.34375 -0.390625q0.609375 -0.390625 0.609375 -1.203125q0 -0.640625 -0.4375 -1.0625q-0.4375 -0.421875 -1.125 -0.421875q-0.6875 0 -1.140625 0.4375q-0.453125 0.421875 -0.59375 1.28125l-1.171875 -0.21875q0.21875 -1.171875 0.984375 -1.8125q0.765625 -0.65625 1.890625 -0.65625q0.78125 0 1.4375 0.34375q0.65625 0.328125 1.0 0.90625q0.359375 0.578125 0.359375 1.234375q0 0.609375 -0.34375 1.125q-0.328125 0.5 -0.96875 0.796875q0.84375 0.203125 1.3125 0.828125q0.46875 0.609375 0.46875 1.53125q0 1.25 -0.921875 2.125q-0.90625 0.859375 -2.296875 0.859375q-1.25 0 -2.09375 -0.75q-0.828125 -0.75 -0.9375 -1.9375zm8.490601 5.328125l-0.828125 0q1.9375 -3.125 1.9375 -6.265625q0 -1.21875 -0.28125 -2.421875q-0.21875 -0.984375 -0.609375 -1.875q-0.265625 -0.59375 -1.046875 -1.953125l0.828125 0q1.234375 1.640625 1.8125 3.28125q0.5 1.421875 0.5 2.96875q0 1.75 -0.671875 3.390625q-0.671875 1.640625 -1.640625 2.875z" fill-rule="nonzero"/><path fill="#ffffff" d="m104.733376 264.19498l0 0c0 -16.933823 13.727585 -30.661407 30.661415 -30.661407l0 0c8.131912 0 15.930771 3.2303925 21.680908 8.98053c5.750122 5.750122 8.980515 13.548981 8.980515 21.680878l0 0c0 16.933838 -13.727585 30.661438 -30.661423 30.661438l0 0c-16.93383 0 -30.661415 -13.7276 -30.661415 -30.661438z" fill-rule="evenodd"/><path stroke="#000000" stroke-width="1.0" stroke-linejoin="round" stroke-linecap="butt" d="m104.733376 264.19498l0 0c0 -16.933823 13.727585 -30.661407 30.661415 -30.661407l0 0c8.131912 0 15.930771 3.2303925 21.680908 8.98053c5.750122 5.750122 8.980515 13.548981 8.980515 21.680878l0 0c0 16.933838 -13.727585 30.661438 -30.661423 30.661438l0 0c-16.93383 0 -30.661415 -13.7276 -30.661415 -30.661438z" fill-rule="evenodd"/><path fill="#000000" d="m130.37518 271.8075q-0.984375 -1.234375 -1.65625 -2.875q-0.65625 -1.640625 -0.65625 -3.390625q0 -1.546875 0.5 -2.96875q0.578125 -1.640625 1.8125 -3.28125l0.828125 0q-0.78125 1.359375 -1.03125 1.9375q-0.40625 0.890625 -0.625 1.875q-0.28125 1.21875 -0.28125 2.4375q0 3.140625 1.9375 6.265625l-0.828125 0zm3.6727448 -7.984375q-0.734375 -0.265625 -1.09375 -0.765625q-0.34375 -0.5 -0.34375 -1.1875q0 -1.03125 0.75 -1.734375q0.75 -0.71875 1.984375 -0.71875q1.25 0 2.015625 0.734375q0.765625 0.71875 0.765625 1.75q0 0.671875 -0.359375 1.171875q-0.34375 0.484375 -1.046875 0.75q0.875 0.28125 1.328125 0.921875q0.46875 0.640625 0.46875 1.515625q0 1.234375 -0.875 2.0625q-0.859375 0.828125 -2.265625 0.828125q-1.421875 0 -2.28125 -0.828125q-0.859375 -0.84375 -0.859375 -2.09375q0 -0.921875 0.46875 -1.546875q0.46875 -0.640625 1.34375 -0.859375zm-0.234375 -1.984375q0 0.671875 0.4375 1.109375q0.4375 0.421875 1.125 0.421875q0.671875 0 1.109375 -0.421875q0.4375 -0.421875 0.4375 -1.046875q0 -0.640625 -0.453125 -1.078125q-0.4375 -0.4375 -1.109375 -0.4375q-0.671875 0 -1.109375 0.4375q-0.4375 0.421875 -0.4375 1.015625zm-0.375 4.40625q0 0.5 0.234375 0.96875q0.234375 0.46875 0.703125 0.734375q0.46875 0.25 1.015625 0.25q0.828125 0 1.375 -0.53125q0.546875 -0.546875 0.546875 -1.390625q0 -0.84375 -0.5625 -1.390625q-0.5625 -0.5625 -1.40625 -0.5625q-0.828125 0 -1.375 0.546875q-0.53125 0.546875 -0.53125 1.375zm7.3031006 5.5625l-0.828125 0q1.9375 -3.125 1.9375 -6.265625q0 -1.21875 -0.28125 -2.421875q-0.21875 -0.984375 -0.609375 -1.875q-0.265625 -0.59375 -1.046875 -1.953125l0.828125 0q1.234375 1.640625 1.8125 3.28125q0.5 1.421875 0.5 2.96875q0 1.75 -0.671875 3.390625q-0.671875 1.640625 -1.640625 2.875z" fill-rule="nonzero"/><path fill="#ffffff" d="m301.80298 549.32404l0 0c0 -16.933838 13.72757 -30.661438 30.661407 -30.661438l0 0c8.1319275 0 15.930756 3.2304077 21.680908 8.98053c5.750122 5.750122 8.980499 13.549011 8.980499 21.680908l0 0c0 16.933838 -13.72757 30.661438 -30.661407 30.661438l0 0c-16.933838 0 -30.661407 -13.7276 -30.661407 -30.661438z" fill-rule="evenodd"/><path stroke="#000000" stroke-width="1.0" stroke-linejoin="round" stroke-linecap="butt" d="m301.80298 549.32404l0 0c0 -16.933838 13.72757 -30.661438 30.661407 -30.661438l0 0c8.1319275 0 15.930756 3.2304077 21.680908 8.98053c5.750122 5.750122 8.980499 13.549011 8.980499 21.680908l0 0c0 16.933838 -13.72757 30.661438 -30.661407 30.661438l0 0c-16.933838 0 -30.661407 -13.7276 -30.661407 -30.661438z" fill-rule="evenodd"/><path fill="#000000" d="m328.49954 546.124l-1.859375 0l-0.34375 -7.96875l-1.515625 7.96875l-1.765625 0l1.984375 -9.546875l2.796875 0l0.296875 6.6875l3.25 -6.6875l2.828125 0l-2.0 9.546875l-1.78125 0l1.875 -7.90625l-3.765625 7.90625zm5.9149475 -3.09375l1.875 -0.09375q0.03125 0.890625 0.296875 1.203125q0.4375 0.5 1.59375 0.5q0.96875 0 1.390625 -0.34375q0.4375 -0.34375 0.4375 -0.828125q0 -0.421875 -0.359375 -0.71875q-0.25 -0.203125 -1.359375 -0.6875q-1.109375 -0.484375 -1.625 -0.796875q-0.5 -0.328125 -0.796875 -0.84375q-0.296875 -0.515625 -0.296875 -1.203125q0 -1.203125 0.875 -2.0q0.875 -0.796875 2.53125 -0.796875q1.671875 0 2.59375 0.796875q0.921875 0.78125 1.015625 2.09375l-1.890625 0.078125q-0.0625 -0.6875 -0.484375 -1.046875q-0.421875 -0.359375 -1.25 -0.359375q-0.8125 0 -1.171875 0.28125q-0.34375 0.28125 -0.34375 0.71875q0 0.40625 0.328125 0.671875q0.3125 0.28125 1.40625 0.75q1.640625 0.71875 2.09375 1.15625q0.671875 0.65625 0.671875 1.671875q0 1.265625 -1.0 2.15625q-1.0 0.890625 -2.78125 0.890625q-1.234375 0 -2.140625 -0.40625q-0.890625 -0.40625 -1.265625 -1.140625q-0.375 -0.75 -0.34375 -1.703125z" fill-rule="nonzero"/><path fill="#000000" d="m327.4448 564.9365q-0.984375 -1.234375 -1.65625 -2.875q-0.65625 -1.640625 -0.65625 -3.390625q0 -1.546875 0.5 -2.96875q0.578125 -1.640625 1.8125 -3.28125l0.828125 0q-0.78125 1.359375 -1.03125 1.9375q-0.40625 0.890625 -0.625 1.875q-0.28125 1.21875 -0.28125 2.4375q0 3.140625 1.9375 6.265625l-0.828125 0zm8.0164795 -3.9375l0 1.125l-6.296875 0q-0.015625 -0.421875 0.140625 -0.8125q0.234375 -0.640625 0.765625 -1.265625q0.53125 -0.625 1.53125 -1.453125q1.5625 -1.265625 2.109375 -2.015625q0.546875 -0.75 0.546875 -1.40625q0 -0.703125 -0.5 -1.171875q-0.5 -0.484375 -1.296875 -0.484375q-0.859375 0 -1.375 0.515625q-0.5 0.5 -0.5 1.390625l-1.203125 -0.109375q0.125 -1.359375 0.921875 -2.0625q0.8125 -0.703125 2.171875 -0.703125q1.375 0 2.171875 0.765625q0.8125 0.75 0.8125 1.875q0 0.578125 -0.234375 1.140625q-0.234375 0.546875 -0.78125 1.15625q-0.546875 0.609375 -1.8125 1.671875q-1.046875 0.890625 -1.359375 1.21875q-0.296875 0.3125 -0.484375 0.625l4.671875 0zm2.3499756 3.9375l-0.828125 0q1.9375 -3.125 1.9375 -6.265625q0 -1.21875 -0.28125 -2.421875q-0.21875 -0.984375 -0.609375 -1.875q-0.265625 -0.59375 -1.046875 -1.953125l0.828125 0q1.234375 1.640625 1.8125 3.28125q0.5 1.421875 0.5 2.96875q0 1.75 -0.671875 3.390625q-0.671875 1.640625 -1.640625 2.875z" fill-rule="nonzero"/><path fill="#ffffff" d="m204.55522 104.391975l0 0c0 -16.933838 13.72757 -30.661423 30.661407 -30.661423l0 0c8.131912 0 15.930771 3.2303925 21.680893 8.980522c5.750122 5.7501297 8.98053 13.548981 8.98053 21.6809l0 0c0 16.93383 -13.727585 30.661415 -30.661423 30.661415l0 0c-16.933838 0 -30.661407 -13.727585 -30.661407 -30.661415z" fill-rule="evenodd"/><path stroke="#000000" stroke-width="1.0" stroke-linejoin="round" stroke-linecap="butt" d="m204.55522 104.391975l0 0c0 -16.933838 13.72757 -30.661423 30.661407 -30.661423l0 0c8.131912 0 15.930771 3.2303925 21.680893 8.980522c5.750122 5.7501297 8.98053 13.548981 8.98053 21.6809l0 0c0 16.93383 -13.727585 30.661415 -30.661423 30.661415l0 0c-16.933838 0 -30.661407 -13.727585 -30.661407 -30.661415z" fill-rule="evenodd"/><path fill="#000000" d="m226.49078 112.00447q-0.984375 -1.234375 -1.65625 -2.875q-0.65625 -1.640625 -0.65625 -3.390625q0 -1.546875 0.5 -2.96875q0.578125 -1.640625 1.8125 -3.28125l0.828125 0q-0.78125 1.359375 -1.03125 1.9375q-0.40625 0.890625 -0.625 1.875q-0.28125 1.21875 -0.28125 2.4375q0 3.140625 1.9375 6.265625l-0.828125 0zm6.2821198 -2.8125l-1.171875 0l0 -7.46875q-0.421875 0.40625 -1.109375 0.8125q-0.6875 0.40625 -1.234375 0.609375l0 -1.140625q0.984375 -0.453125 1.71875 -1.109375q0.734375 -0.671875 1.03125 -1.28125l0.765625 0l0 9.578125zm3.0062256 -2.515625l1.171875 -0.15625q0.203125 1.0 0.6875 1.4375q0.484375 0.4375 1.171875 0.4375q0.828125 0 1.390625 -0.578125q0.578125 -0.578125 0.578125 -1.421875q0 -0.796875 -0.53125 -1.3125q-0.515625 -0.53125 -1.328125 -0.53125q-0.34375 0 -0.828125 0.125l0.125 -1.03125q0.125 0.015625 0.1875 0.015625q0.75 0 1.34375 -0.390625q0.609375 -0.390625 0.609375 -1.203125q0 -0.640625 -0.4375 -1.0625q-0.4375 -0.421875 -1.125 -0.421875q-0.6875 0 -1.140625 0.4375q-0.453125 0.421875 -0.59375 1.28125l-1.171875 -0.21875q0.21875 -1.171875 0.984375 -1.8125q0.765625 -0.65625 1.890625 -0.65625q0.78125 0 1.4375 0.34375q0.65625 0.328125 1.0 0.90625q0.359375 0.578125 0.359375 1.234375q0 0.609375 -0.34375 1.125q-0.328125 0.5 -0.96875 0.796875q0.84375 0.203125 1.3125 0.828125q0.46875 0.609375 0.46875 1.53125q0 1.25 -0.921875 2.125q-0.90625 0.859375 -2.296875 0.859375q-1.25 0 -2.09375 -0.75q-0.828125 -0.75 -0.9375 -1.9375zm8.490601 5.328125l-0.828125 0q1.9375 -3.125 1.9375 -6.265625q0 -1.21875 -0.28125 -2.421875q-0.21875 -0.984375 -0.609375 -1.875q-0.265625 -0.59375 -1.046875 -1.953125l0.828125 0q1.234375 1.640625 1.8125 3.28125q0.5 1.421875 0.5 2.96875q0 1.75 -0.671875 3.390625q-0.671875 1.640625 -1.640625 2.875z" fill-rule="nonzero"/><path fill="#000000" fill-opacity="0.0" d="m481.42834 61.03142l10.614166 16.031498" fill-rule="evenodd"/><path stroke="#000000" stroke-width="1.0" stroke-linejoin="round" stroke-linecap="butt" d="m481.42834 61.03142l10.614166 16.031498" fill-rule="evenodd"/><path fill="#000000" fill-opacity="0.0" d="m471.56934 80.74946l20.188965 -3.2440948" fill-rule="evenodd"/><path stroke="#000000" stroke-width="1.0" stroke-linejoin="round" stroke-linecap="butt" d="m471.56934 80.74946l20.188965 -3.2440948" fill-rule="evenodd"/><path fill="#000000" fill-opacity="0.0" d="m352.49606 -5.1443586l145.13385 0l0 42.078743l-145.13385 0z" fill-rule="evenodd"/><path fill="#000000" d="m393.54062 14.560641l1.3125 -0.109375q0.09375 0.78125 0.421875 1.296875q0.34375 0.50000095 1.0625 0.81250095q0.71875 0.3125 1.609375 0.3125q0.796875 0 1.40625 -0.234375q0.609375 -0.234375 0.90625 -0.64062595q0.296875 -0.421875 0.296875 -0.90625q0 -0.5 -0.296875 -0.859375q-0.28125 -0.375 -0.9375 -0.625q-0.421875 -0.171875 -1.875 -0.515625q-1.4375 -0.34375 -2.015625 -0.65625q-0.75 -0.390625 -1.125 -0.96875q-0.359375 -0.59375 -0.359375 -1.3125q0 -0.796875 0.4375 -1.484375q0.453125 -0.6875 1.3125 -1.046875q0.875 -0.359375 1.9375 -0.359375q1.171875 0 2.0625 0.375q0.890625 0.375 1.359375 1.109375q0.484375 0.734375 0.515625 1.65625l-1.328125 0.09375q-0.109375 -1.0 -0.734375 -1.5q-0.609375 -0.515625 -1.8125 -0.515625q-1.265625 0 -1.84375 0.46875q-0.578125 0.46875 -0.578125 1.109375q0 0.5625 0.421875 0.9375q0.390625 0.359375 2.078125 0.75q1.703125 0.375 2.328125 0.65625q0.921875 0.421875 1.359375 1.078125q0.4375 0.640625 0.4375 1.484375q0 0.84375 -0.484375 1.593751q-0.484375 0.734375 -1.390625 1.140625q-0.890625 0.40625 -2.015625 0.40625q-1.421875 0 -2.390625 -0.40625q-0.953125 -0.421875 -1.5 -1.25q-0.546875 -0.82812595 -0.578125 -1.890626zm12.900604 2.218751l0.1875 1.140625q-0.546875 0.109375 -0.984375 0.109375q-0.6875 0 -1.078125 -0.21875q-0.390625 -0.21875 -0.546875 -0.578125q-0.15625 -0.359375 -0.15625 -1.515626l0 -4.375l-0.953125 0l0 -1.0l0.953125 0l0 -1.890625l1.28125 -0.765625l0 2.65625l1.296875 0l0 1.0l-1.296875 0l0 4.4375q0 0.54687595 0.0625 0.71875095q0.078125 0.15625 0.21875 0.25q0.15625 0.078125 0.453125 0.078125q0.203125 0 0.5625 -0.046875zm6.2125854 0.21875q-0.71875 0.609375 -1.375 0.859375q-0.65625 0.25 -1.421875 0.25q-1.25 0 -1.921875 -0.609375q-0.671875 -0.609375 -0.671875 -1.562501q0 -0.5625 0.25 -1.015625q0.25 -0.46875 0.65625 -0.75q0.421875 -0.28125 0.9375 -0.421875q0.375 -0.09375 1.140625 -0.1875q1.5625 -0.1875 2.296875 -0.453125q0.015625 -0.265625 0.015625 -0.328125q0 -0.796875 -0.375 -1.109375q-0.484375 -0.4375 -1.453125 -0.4375q-0.921875 0 -1.359375 0.328125q-0.421875 0.3125 -0.625 1.109375l-1.265625 -0.171875q0.171875 -0.796875 0.5625 -1.296875q0.390625 -0.5 1.140625 -0.765625q0.75 -0.265625 1.71875 -0.265625q0.984375 0 1.59375 0.234375q0.609375 0.21875 0.890625 0.5625q0.28125 0.34375 0.40625 0.875q0.0625 0.328125 0.0625 1.1875l0 1.71875q0 1.796876 0.078125 2.281251q0.078125 0.46875 0.328125 0.90625l-1.34375 0q-0.203125 -0.40625 -0.265625 -0.9375zm-0.109375 -2.875001q-0.703125 0.28125 -2.09375 0.484375q-0.796875 0.109375 -1.125 0.265625q-0.328125 0.140625 -0.515625 0.421875q-0.171875 0.265625 -0.171875 0.59375q0 0.51562595 0.390625 0.85937595q0.390625 0.34375 1.140625 0.34375q0.734375 0 1.3125 -0.3125q0.59375 -0.328125 0.859375 -0.89062595q0.203125 -0.4375 0.203125 -1.296875l0 -0.46875zm3.291748 3.812501l0 -7.593751l1.15625 0l0 1.140625q0.453125 -0.796875 0.828125 -1.046875q0.375 -0.265625 0.8125 -0.265625q0.65625 0 1.328125 0.40625l-0.4375 1.203125q-0.46875 -0.28125 -0.953125 -0.28125q-0.421875 0 -0.765625 0.25q-0.328125 0.25 -0.46875 0.703125q-0.21875 0.6875 -0.21875 1.5l0 3.984376l-1.28125 0zm7.7087708 -1.15625l0.1875 1.140625q-0.546875 0.109375 -0.984375 0.109375q-0.6875 0 -1.078125 -0.21875q-0.390625 -0.21875 -0.546875 -0.578125q-0.15625 -0.359375 -0.15625 -1.515626l0 -4.375l-0.953125 0l0 -1.0l0.953125 0l0 -1.890625l1.28125 -0.765625l0 2.65625l1.296875 0l0 1.0l-1.296875 0l0 4.4375q0 0.54687595 0.0625 0.71875095q0.078125 0.15625 0.21875 0.25q0.15625 0.078125 0.453125 0.078125q0.203125 0 0.5625 -0.046875zm5.3314514 1.15625l0 -10.484376l1.28125 0l0 3.75q0.90625 -1.03125 2.28125 -1.03125q0.84375 0 1.46875 0.328125q0.625 0.328125 0.890625 0.921875q0.265625 0.578125 0.265625 1.703125l0 4.812501l-1.28125 0l0 -4.812501q0 -0.96875 -0.421875 -1.40625q-0.421875 -0.4375 -1.1875 -0.4375q-0.578125 0 -1.078125 0.296875q-0.5 0.296875 -0.71875 0.8125q-0.21875 0.5 -0.21875 1.390625l0 4.156251l-1.28125 0zm13.354218 -2.453126l1.328125 0.171875q-0.3125 1.171876 -1.171875 1.812501q-0.84375 0.640625 -2.171875 0.640625q-1.671875 0 -2.65625 -1.015625q-0.96875 -1.03125 -0.96875 -2.890626q0 -1.921875 0.984375 -2.96875q1.0 -1.0625 2.578125 -1.0625q1.515625 0 2.484375 1.03125q0.96875 1.03125 0.96875 2.921875q0 0.109375 -0.015625 0.34375l-5.65625 0q0.0625 1.25 0.703125 1.921876q0.640625 0.65625 1.59375 0.65625q0.703125 0 1.203125 -0.359375q0.5 -0.375 0.796875 -1.203126zm-4.234375 -2.078125l4.25 0q-0.09375 -0.953125 -0.484375 -1.4375q-0.625 -0.75 -1.609375 -0.75q-0.875 0 -1.484375 0.59375q-0.609375 0.59375 -0.671875 1.59375zm7.166748 4.531251l0 -7.593751l1.15625 0l0 1.140625q0.453125 -0.796875 0.828125 -1.046875q0.375 -0.265625 0.8125 -0.265625q0.65625 0 1.328125 0.40625l-0.4375 1.203125q-0.46875 -0.28125 -0.953125 -0.28125q-0.421875 0 -0.765625 0.25q-0.328125 0.25 -0.46875 0.703125q-0.21875 0.6875 -0.21875 1.5l0 3.984376l-1.28125 0zm10.099396 -2.453126l1.328125 0.171875q-0.3125 1.171876 -1.171875 1.812501q-0.84375 0.640625 -2.171875 0.640625q-1.671875 0 -2.65625 -1.015625q-0.96875 -1.03125 -0.96875 -2.890626q0 -1.921875 0.984375 -2.96875q1.0 -1.0625 2.578125 -1.0625q1.515625 0 2.484375 1.03125q0.96875 1.03125 0.96875 2.921875q0 0.109375 -0.015625 0.34375l-5.65625 0q0.0625 1.25 0.703125 1.921876q0.640625 0.65625 1.59375 0.65625q0.703125 0 1.203125 -0.359375q0.5 -0.375 0.796875 -1.203126zm-4.234375 -2.078125l4.25 0q-0.09375 -0.953125 -0.484375 -1.4375q-0.625 -0.75 -1.609375 -0.75q-0.875 0 -1.484375 0.59375q-0.609375 0.59375 -0.671875 1.59375z" fill-rule="nonzero"/></g></svg>