<?xml version="1.0" encoding="UTF-8" standalone="no"?>
<svg
   xmlns:dc="http://purl.org/dc/elements/1.1/"
   xmlns:cc="http://creativecommons.org/ns#"
   xmlns:rdf="http://www.w3.org/1999/02/22-rdf-syntax-ns#"
   xmlns:svg="http://www.w3.org/2000/svg"
   xmlns="http://www.w3.org/2000/svg"
   xmlns:sodipodi="http://sodipodi.sourceforge.net/DTD/sodipodi-0.dtd"
   xmlns:inkscape="http://www.inkscape.org/namespaces/inkscape"
   inkscape:version="1.0 (4035a4fb49, 2020-05-01)"
   height="470"
   width="514"
   sodipodi:docname="deity-duos-example.svg"
   id="svg43"
   stroke-miterlimit="10"
   stroke-linecap="square"
   stroke="none"
   fill="none"
   viewBox="0 0 514 470"
   version="1.1">
  <metadata
     id="metadata49">
    <rdf:RDF>
      <cc:Work
         rdf:about="">
        <dc:format>image/svg+xml</dc:format>
        <dc:type
           rdf:resource="http://purl.org/dc/dcmitype/StillImage" />
        <dc:title></dc:title>
      </cc:Work>
    </rdf:RDF>
  </metadata>
  <defs
     id="defs47" />
  <sodipodi:namedview
     inkscape:current-layer="svg43"
     inkscape:window-maximized="1"
     inkscape:window-y="-6"
     inkscape:window-x="-6"
     inkscape:cy="527.10231"
     inkscape:cx="437.398"
     inkscape:zoom="0.45569104"
     showguides="true"
     showgrid="false"
     id="namedview45"
     inkscape:window-height="850"
     inkscape:window-width="1368"
     inkscape:pageshadow="2"
     inkscape:pageopacity="0"
     guidetolerance="10"
     gridtolerance="10"
     objecttolerance="10"
     borderopacity="1"
     bordercolor="#666666"
     pagecolor="#ffffff" />
  <clipPath
     id="p.0">
    <path
       id="path2"
       clip-rule="nonzero"
       d="M 0,0 H 1280 V 960 H 0 Z" />
  </clipPath>
  <g
     transform="translate(-311.61465,2.1944691)"
     id="g41"
     clip-path="url(#p.0)">
    <path
       id="path5"
       fill-rule="evenodd"
       d="M 0,0 H 1280 V 960 H 0 Z"
       fill-opacity="0"
       fill="#000000" />
    <path
       id="path7"
       fill-rule="evenodd"
       d="m 418.62036,233.58542 v 0 c 0,-86.02596 72.33951,-155.76378 161.57483,-155.76378 v 0 c 42.8523,0 83.94946,16.410782 114.25061,45.62215 30.30115,29.21138 47.32416,68.8305 47.32416,110.14163 v 0 c 0,86.02597 -72.33948,155.7638 -161.57477,155.7638 v 0 c -89.23532,0 -161.57483,-69.73782 -161.57483,-155.7638 z"
       fill-opacity="0"
       fill="#000000" />
    <path
       id="path9"
       fill-rule="evenodd"
       d="m 418.62036,233.58542 v 0 c 0,-86.02596 72.33951,-155.76378 161.57483,-155.76378 v 0 c 42.8523,0 83.94946,16.410782 114.25061,45.62215 30.30115,29.21138 47.32416,68.8305 47.32416,110.14163 v 0 c 0,86.02597 -72.33948,155.7638 -161.57477,155.7638 v 0 c -89.23532,0 -161.57483,-69.73782 -161.57483,-155.7638 z"
       stroke-linecap="butt"
       stroke-linejoin="round"
       stroke-width="1"
       stroke="#000000" />
    <path
       id="path11"
       fill-rule="evenodd"
       d="m 678.1796,165.71242 v 0 c 0,-22.20447 18.00031,-40.20473 40.20471,-40.20473 v 0 c 10.66297,0 20.88922,4.23584 28.42908,11.7757 7.53979,7.53984 11.7757,17.76607 11.7757,28.42903 v 0 c 0,22.20445 -18.00031,40.20473 -40.20478,40.20473 v 0 c -22.2044,0 -40.20471,-18.00028 -40.20471,-40.20473 z"
       fill="#ffffff" />
    <path
       id="path13"
       fill-rule="evenodd"
       d="m 678.1796,165.71242 v 0 c 0,-22.20447 18.00031,-40.20473 40.20471,-40.20473 v 0 c 10.66297,0 20.88922,4.23584 28.42908,11.7757 7.53979,7.53984 11.7757,17.76607 11.7757,28.42903 v 0 c 0,22.20445 -18.00031,40.20473 -40.20478,40.20473 v 0 c -22.2044,0 -40.20471,-18.00028 -40.20471,-40.20473 z"
       stroke-linecap="butt"
       stroke-linejoin="round"
       stroke-width="1"
       stroke="#000000" />
    <path
       id="path15"
       fill-rule="nonzero"
       d="m 714.8802,166.66367 h -5.15625 l -1.25,5.96875 h -2.75 l 2.79687,-13.35938 h 2.73438 l -1.0625,5.15625 h 5.15625 l 1.09375,-5.15625 h 2.73437 l -2.78125,13.35938 h -2.75 z m 7.08228,5.96875 h -2.76563 l 2.79688,-13.35938 h 5.9375 q 1.53125,0 2.375,0.32813 0.85937,0.3125 1.375,1.15625 0.53125,0.82812 0.53125,2.01562 0,1.70313 -1.03125,2.8125 -1.01563,1.10938 -3.07813,1.375 0.53125,0.46875 1,1.25 0.92188,1.5625 2.04688,4.42188 h -2.95313 q -0.35937,-1.125 -1.39062,-3.53125 -0.5625,-1.28125 -1.20313,-1.73438 -0.39062,-0.26562 -1.375,-0.26562 h -1.10937 z m 1.5625,-7.53125 h 1.46875 q 2.20312,0 2.92187,-0.26563 0.73438,-0.26562 1.14063,-0.82812 0.42187,-0.5625 0.42187,-1.1875 0,-0.73438 -0.59375,-1.09375 -0.375,-0.21875 -1.57812,-0.21875 h -3.03125 z"
       fill="#000000" />
    <path
       id="path17"
       fill-rule="evenodd"
       d="m 539.8864,390.3339 v 0 c 0,-22.20447 18.00024,-40.20471 40.20471,-40.20471 v 0 c 10.66297,0 20.88916,4.23584 28.42902,11.77566 7.53985,7.53986 11.77569,17.76609 11.77569,28.42905 v 0 c 0,22.20447 -18.00024,40.20471 -40.20471,40.20471 v 0 c -22.20447,0 -40.20471,-18.00024 -40.20471,-40.20471 z"
       fill="#ffffff" />
    <path
       id="path19"
       fill-rule="evenodd"
       d="m 539.8864,390.3339 v 0 c 0,-22.20447 18.00024,-40.20471 40.20471,-40.20471 v 0 c 10.66297,0 20.88916,4.23584 28.42902,11.77566 7.53985,7.53986 11.77569,17.76609 11.77569,28.42905 v 0 c 0,22.20447 -18.00024,40.20471 -40.20471,40.20471 v 0 c -22.20447,0 -40.20471,-18.00024 -40.20471,-40.20471 z"
       stroke-linecap="butt"
       stroke-linejoin="round"
       stroke-width="1"
       stroke="#000000" />
    <path
       id="path21"
       fill-rule="nonzero"
       d="m 568.3204,392.92575 2.60937,-0.14063 q 0.0625,1.25 0.4375,1.6875 0.59375,0.71875 2.21875,0.71875 1.34375,0 1.9375,-0.48437 0.60938,-0.48438 0.60938,-1.17188 0,-0.59375 -0.48438,-1 -0.35937,-0.29687 -1.90625,-0.96875 -1.54687,-0.6875 -2.26562,-1.125 -0.71875,-0.45312 -1.125,-1.17187 -0.40625,-0.71875 -0.40625,-1.6875 0,-1.6875 1.21875,-2.79688 1.21875,-1.10937 3.53125,-1.10937 2.34375,0 3.625,1.10937 1.29687,1.09375 1.42187,2.92188 l -2.625,0.125 q -0.0937,-0.96875 -0.6875,-1.46875 -0.59375,-0.51563 -1.75,-0.51563 -1.14062,0 -1.64062,0.40625 -0.48438,0.39063 -0.48438,1 0,0.57813 0.45313,0.95313 0.45312,0.39062 1.98437,1.04687 2.29688,1 2.92188,1.60938 0.9375,0.92187 0.9375,2.34375 0,1.76562 -1.40625,3.03125 -1.39063,1.25 -3.875,1.25 -1.73438,0 -3,-0.57813 -1.25,-0.57812 -1.78125,-1.60937 -0.51563,-1.03125 -0.46875,-2.375 z m 21.22479,-1.64063 h -5.15625 l -1.25,5.96875 h -2.75 l 2.79688,-13.35937 h 2.73437 l -1.0625,5.15625 h 5.15625 l 1.09375,-5.15625 h 2.73438 l -2.78125,13.35937 h -2.75 z"
       fill="#000000" />
    <path
       id="path23"
       fill-rule="evenodd"
       d="m 394.3937,165.71242 v 0 c 0,-22.20447 18.00027,-40.20473 40.20474,-40.20473 v 0 c 10.66294,0 20.88916,4.23584 28.42902,11.7757 7.53985,7.53984 11.77569,17.76607 11.77569,28.42903 v 0 c 0,22.20445 -18.00027,40.20473 -40.20471,40.20473 v 0 c -22.20447,0 -40.20474,-18.00028 -40.20474,-40.20473 z"
       fill="#ffffff" />
    <path
       id="path25"
       fill-rule="evenodd"
       d="m 394.3937,165.71242 v 0 c 0,-22.20447 18.00027,-40.20473 40.20474,-40.20473 v 0 c 10.66294,0 20.88916,4.23584 28.42902,11.7757 7.53985,7.53984 11.77569,17.76607 11.77569,28.42903 v 0 c 0,22.20445 -18.00027,40.20473 -40.20471,40.20473 v 0 c -22.20447,0 -40.20474,-18.00028 -40.20474,-40.20473 z"
       stroke-linecap="butt"
       stroke-linejoin="round"
       stroke-width="1"
       stroke="#000000" />
    <path
       id="path27"
       fill-rule="nonzero"
       d="m 424.73892,172.63242 2.79687,-13.35938 h 2.73438 l -2.32813,11.125 h 6.79688 l -0.45313,2.23438 z m 15.74493,0 h -2.75 l 2.32813,-11.125 h -3.92188 l 0.46875,-2.23438 h 10.53125 l -0.46875,2.23438 h -3.85937 z"
       fill="#000000" />
    <path
       id="path29"
       fill-rule="evenodd"
       d="m 523.8392,41.026245 h 112.50391 v 25.6063 H 523.8392 Z"
       fill-opacity="0"
       fill="#000000" />
    <path
       id="path31"
       fill-rule="nonzero"
       d="m 549.45294,67.94624 h -2.9375 l -1.17188,-3.03125 h -5.32812 l -1.10938,3.03125 h -2.85937 l 5.20312,-13.359375 h 2.84375 z m -4.96875,-5.28125 -1.84375,-4.953125 -1.79688,4.953125 z m 6.30109,-4.390625 h 2.39062 v 1.421875 q 0.46875,-0.734375 1.25,-1.1875 0.79688,-0.453125 1.76563,-0.453125 1.6875,0 2.85937,1.328125 1.17188,1.3125 1.17188,3.671875 0,2.421875 -1.1875,3.765625 -1.1875,1.34375 -2.85938,1.34375 -0.8125,0 -1.46875,-0.3125 -0.64062,-0.328125 -1.35937,-1.09375 v 4.875 h -2.5625 z m 2.53125,4.671875 q 0,1.625 0.64062,2.40625 0.65625,0.78125 1.57813,0.78125 0.90625,0 1.48437,-0.71875 0.59375,-0.71875 0.59375,-2.34375 0,-1.515625 -0.60937,-2.25 -0.60938,-0.75 -1.51563,-0.75 -0.9375,0 -1.5625,0.734375 -0.60937,0.71875 -0.60937,2.140625 z m 11.48974,-8.359375 v 4.921875 q 1.23438,-1.453125 2.95313,-1.453125 0.89062,0 1.59375,0.328125 0.71875,0.328125 1.07812,0.84375 0.35938,0.5 0.48438,1.125 0.14062,0.609375 0.14062,1.921875 v 5.671875 h -2.5625 v -5.109375 q 0,-1.515625 -0.15625,-1.921875 -0.14062,-0.421875 -0.51562,-0.65625 -0.35938,-0.25 -0.90625,-0.25 -0.64063,0 -1.14063,0.3125 -0.5,0.3125 -0.73437,0.9375 -0.23438,0.625 -0.23438,1.84375 v 4.84375 h -2.5625 V 54.586865 Z m 11.30219,13.359375 h -2.5625 v -9.671875 h 2.375 v 1.375 q 0.60937,-0.984375 1.09375,-1.28125 0.48437,-0.3125 1.10937,-0.3125 0.875,0 1.6875,0.484375 l -0.79687,2.234375 q -0.64063,-0.421875 -1.20313,-0.421875 -0.53125,0 -0.90625,0.296875 -0.375,0.296875 -0.59375,1.078125 -0.20312,0.765625 -0.20312,3.234375 z m 4.21344,-4.96875 q 0,-1.28125 0.625,-2.46875 0.625,-1.203125 1.78125,-1.828125 1.15625,-0.625 2.57812,-0.625 2.1875,0 3.59375,1.421875 1.40625,1.421875 1.40625,3.609375 0,2.1875 -1.42187,3.640625 -1.42188,1.4375 -3.5625,1.4375 -1.32813,0 -2.54688,-0.59375 -1.20312,-0.609375 -1.82812,-1.765625 -0.625,-1.171875 -0.625,-2.828125 z m 2.625,0.125 q 0,1.453125 0.67187,2.21875 0.6875,0.75 1.6875,0.75 1,0 1.67188,-0.75 0.6875,-0.765625 0.6875,-2.234375 0,-1.421875 -0.6875,-2.1875 -0.67188,-0.765625 -1.67188,-0.765625 -1,0 -1.6875,0.765625 -0.67187,0.765625 -0.67187,2.203125 z m 18.23968,4.84375 h -2.39062 v -1.421875 q -0.59375,0.828125 -1.40625,1.234375 -0.79688,0.40625 -1.60938,0.40625 -1.67187,0 -2.85937,-1.34375 -1.1875,-1.34375 -1.1875,-3.75 0,-2.453125 1.15625,-3.734375 1.15625,-1.28125 2.92187,-1.28125 1.625,0 2.8125,1.34375 v -4.8125 h 2.5625 z m -6.84375,-5.046875 q 0,1.546875 0.4375,2.234375 0.60938,1.015625 1.71875,1.015625 0.89063,0 1.5,-0.75 0.625,-0.765625 0.625,-2.25 0,-1.671875 -0.60937,-2.40625 -0.59375,-0.734375 -1.53125,-0.734375 -0.90625,0 -1.53125,0.734375 -0.60938,0.71875 -0.60938,2.15625 z m 9.36475,-5.9375 v -2.375 h 2.5625 v 2.375 z m 0,10.984375 v -9.671875 h 2.5625 v 9.671875 z m 9.62079,-9.671875 v 2.03125 h -1.75 v 3.90625 q 0,1.1875 0.0469,1.390625 0.0469,0.1875 0.21875,0.3125 0.1875,0.125 0.4375,0.125 0.35938,0 1.03125,-0.25 l 0.21875,2 q -0.89062,0.375 -2.01562,0.375 -0.70313,0 -1.26563,-0.234375 -0.54687,-0.234375 -0.8125,-0.59375 -0.25,-0.375 -0.34375,-1 -0.0937,-0.453125 -0.0937,-1.8125 v -4.21875 h -1.17187 v -2.03125 h 1.17187 V 56.35249 l 2.57813,-1.5 v 3.421875 z m 7.36895,6.59375 2.54688,0.421875 q -0.48438,1.40625 -1.54688,2.140625 -1.0625,0.734375 -2.65625,0.734375 -2.51562,0 -3.73437,-1.65625 -0.95313,-1.3125 -0.95313,-3.328125 0,-2.40625 1.25,-3.765625 1.26563,-1.359375 3.1875,-1.359375 2.15625,0 3.40625,1.421875 1.25,1.421875 1.1875,4.375 h -6.40625 q 0.0312,1.140625 0.60938,1.78125 0.59375,0.625 1.48437,0.625 0.59375,0 1,-0.328125 0.42188,-0.328125 0.625,-1.0625 z m 0.15625,-2.59375 q -0.0312,-1.109375 -0.57812,-1.6875 -0.54688,-0.578125 -1.32813,-0.578125 -0.84375,0 -1.39062,0.609375 -0.54688,0.609375 -0.53125,1.65625 z"
       fill="#000000" />
    <path
       id="path33"
       fill-rule="evenodd"
       d="m 719.311,285.19913 h 112.50391 v 25.60629 H 719.311 Z"
       fill-opacity="0"
       fill="#000000" />
    <path
       id="path35"
       fill-rule="nonzero"
       d="m 754.2347,312.1191 h -2.9375 l -1.17188,-3.03125 h -5.32812 l -1.10938,3.03125 h -2.85937 l 5.20312,-13.35938 h 2.84375 z m -4.96875,-5.28125 -1.84375,-4.95313 -1.79688,4.95313 z m 8.83234,5.28125 h -2.5625 v -9.67188 h 2.375 v 1.375 q 0.60937,-0.98437 1.09375,-1.28125 0.48437,-0.3125 1.10937,-0.3125 0.875,0 1.6875,0.48438 l -0.79687,2.23437 q -0.64063,-0.42187 -1.20313,-0.42187 -0.53125,0 -0.90625,0.29687 -0.375,0.29688 -0.59375,1.07813 -0.20312,0.76562 -0.20312,3.23437 z m 9.24463,-9.67188 v 2.03125 h -1.75 v 3.90625 q 0,1.1875 0.0469,1.39063 0.0469,0.1875 0.21875,0.3125 0.1875,0.125 0.4375,0.125 0.35938,0 1.03125,-0.25 l 0.21875,2 q -0.89062,0.375 -2.01562,0.375 -0.70313,0 -1.26563,-0.23438 -0.54687,-0.23437 -0.8125,-0.59375 -0.25,-0.375 -0.34375,-1 -0.0937,-0.45312 -0.0937,-1.8125 v -4.21875 H 761.843 v -2.03125 h 1.17187 v -1.92187 l 2.57813,-1.5 v 3.42187 z m 7.36889,6.59375 2.54688,0.42188 q -0.48438,1.40625 -1.54688,2.14062 -1.0625,0.73438 -2.65625,0.73438 -2.51562,0 -3.73437,-1.65625 -0.95313,-1.3125 -0.95313,-3.32813 0,-2.40625 1.25,-3.76562 1.26563,-1.35938 3.1875,-1.35938 2.15625,0 3.40625,1.42188 1.25,1.42187 1.1875,4.375 h -6.40625 q 0.0312,1.14062 0.60938,1.78125 0.59375,0.625 1.48437,0.625 0.59375,0 1,-0.32813 0.42188,-0.32812 0.625,-1.0625 z m 0.15625,-2.59375 q -0.0312,-1.10937 -0.57812,-1.6875 -0.54688,-0.57812 -1.32813,-0.57812 -0.84375,0 -1.39062,0.60937 -0.54688,0.60938 -0.53125,1.65625 z m 4.42261,-4 h 2.35937 v 1.3125 q 1.26563,-1.53125 3.01563,-1.53125 0.9375,0 1.60937,0.39063 0.6875,0.375 1.125,1.14062 0.64063,-0.76562 1.375,-1.14062 0.75,-0.39063 1.57813,-0.39063 1.0625,0 1.79687,0.4375 0.75,0.42188 1.10938,1.26563 0.26562,0.625 0.26562,2 v 6.1875 h -2.5625 v -5.53125 q 0,-1.4375 -0.26562,-1.85938 -0.34375,-0.54687 -1.09375,-0.54687 -0.53125,0 -1.01563,0.32812 -0.46875,0.32813 -0.67187,0.96875 -0.20313,0.625 -0.20313,2 v 4.64063 h -2.5625 v -5.29688 q 0,-1.42187 -0.14062,-1.82812 -0.14063,-0.40625 -0.42188,-0.60938 -0.28125,-0.20312 -0.78125,-0.20312 -0.59375,0 -1.0625,0.32812 -0.46875,0.3125 -0.6875,0.92188 -0.20312,0.59375 -0.20312,1.98437 v 4.70313 h -2.5625 z m 16.7915,-1.3125 v -2.375 h 2.5625 v 2.375 z m 0,10.98438 v -9.67188 h 2.5625 v 9.67188 z m 4.2771,-2.76563 2.5625,-0.39062 q 0.17188,0.75 0.67188,1.14062 0.5,0.39063 1.40625,0.39063 0.98437,0 1.48437,-0.375 0.34375,-0.25 0.34375,-0.67188 0,-0.29687 -0.1875,-0.48437 -0.1875,-0.1875 -0.85937,-0.34375 -3.09375,-0.6875 -3.92188,-1.25 -1.14062,-0.78125 -1.14062,-2.17188 0,-1.26562 0.98437,-2.10937 1,-0.85938 3.07813,-0.85938 1.98437,0 2.95312,0.65625 0.96875,0.64063 1.32813,1.90625 l -2.40625,0.4375 q -0.15625,-0.5625 -0.59375,-0.85937 -0.42188,-0.29688 -1.23438,-0.29688 -1,0 -1.4375,0.28125 -0.29687,0.20313 -0.29687,0.51563 0,0.26562 0.25,0.46875 0.34375,0.25 2.39062,0.71875 2.04688,0.45312 2.85938,1.14062 0.79687,0.67188 0.79687,1.89063 0,1.34375 -1.10937,2.29687 -1.10938,0.95313 -3.28125,0.95313 -1.98438,0 -3.14063,-0.79688 -1.14062,-0.8125 -1.5,-2.1875 z"
       fill="#000000" />
    <path
       id="path37"
       fill-rule="evenodd"
       d="m 311.99213,285.19913 h 112.50394 v 25.60629 H 311.99213 Z"
       fill-opacity="0"
       fill="#000000" />
    <path
       id="path39"
       fill-rule="nonzero"
       d="m 327.60217,298.75974 h 4.9375 q 1.65625,0 2.53125,0.26563 1.1875,0.34375 2.01562,1.23437 0.84375,0.875 1.28125,2.15625 0.4375,1.28125 0.4375,3.15625 0,1.64063 -0.40625,2.84375 -0.5,1.45313 -1.4375,2.35938 -0.70312,0.67187 -1.89062,1.0625 -0.89063,0.28125 -2.39063,0.28125 h -5.07812 z m 2.70312,2.26563 v 8.84375 h 2.01563 q 1.125,0 1.625,-0.125 0.65625,-0.17188 1.07812,-0.5625 0.4375,-0.39063 0.70313,-1.28125 0.28125,-0.90625 0.28125,-2.45313 0,-1.54687 -0.28125,-2.375 -0.26563,-0.82812 -0.76563,-1.28125 -0.48437,-0.46875 -1.23437,-0.64062 -0.5625,-0.125 -2.21875,-0.125 z m 10.76981,0.10937 v -2.375 h 2.5625 v 2.375 z m 0,10.98438 v -9.67188 h 2.5625 v 9.67188 z m 4.58957,-4.96875 q 0,-1.28125 0.625,-2.46875 0.625,-1.20313 1.78125,-1.82813 1.15625,-0.625 2.57812,-0.625 2.1875,0 3.59375,1.42188 1.40625,1.42187 1.40625,3.60937 0,2.1875 -1.42187,3.64063 -1.42188,1.4375 -3.5625,1.4375 -1.32813,0 -2.54688,-0.59375 -1.20312,-0.60938 -1.82812,-1.76563 -0.625,-1.17187 -0.625,-2.82812 z m 2.625,0.125 q 0,1.45312 0.67187,2.21875 0.6875,0.75 1.6875,0.75 1,0 1.67188,-0.75 0.6875,-0.76563 0.6875,-2.23438 0,-1.42187 -0.6875,-2.1875 -0.67188,-0.76562 -1.67188,-0.76562 -1,0 -1.6875,0.76562 -0.67187,0.76563 -0.67187,2.20313 z m 18.16159,4.84375 h -2.5625 v -4.9375 q 0,-1.5625 -0.17188,-2.01563 -0.15625,-0.46875 -0.53125,-0.71875 -0.35937,-0.26562 -0.875,-0.26562 -0.67187,0 -1.20312,0.375 -0.53125,0.35937 -0.73438,0.96875 -0.1875,0.59375 -0.1875,2.21875 v 4.375 h -2.54687 v -9.67188 h 2.375 v 1.42188 q 1.26562,-1.64063 3.1875,-1.64063 0.84375,0 1.54687,0.3125 0.70313,0.29688 1.0625,0.78125 0.35938,0.46875 0.5,1.07813 0.14063,0.59375 0.14063,1.70312 z m 1.38037,-9.67188 h 2.71875 l 2.32813,6.85938 2.25,-6.85938 h 2.65625 l -3.42188,9.3125 -0.60937,1.6875 q -0.32813,0.84375 -0.64063,1.28125 -0.3125,0.45313 -0.70312,0.71875 -0.39063,0.28125 -0.96875,0.4375 -0.57813,0.15625 -1.3125,0.15625 -0.73438,0 -1.45313,-0.15625 l -0.21875,-2 q 0.59375,0.125 1.07813,0.125 0.89062,0 1.3125,-0.53125 0.4375,-0.51562 0.67187,-1.32812 z m 10.6882,6.90625 2.5625,-0.39062 q 0.17188,0.75 0.67188,1.14062 0.5,0.39063 1.40625,0.39063 0.98437,0 1.48437,-0.375 0.34375,-0.25 0.34375,-0.67188 0,-0.29687 -0.1875,-0.48437 -0.1875,-0.1875 -0.85937,-0.34375 -3.09375,-0.6875 -3.92188,-1.25 -1.14062,-0.78125 -1.14062,-2.17188 0,-1.26562 0.98437,-2.10937 1,-0.85938 3.07813,-0.85938 1.98437,0 2.95312,0.65625 0.96875,0.64063 1.32813,1.90625 l -2.40625,0.4375 q -0.15625,-0.5625 -0.59375,-0.85937 -0.42188,-0.29688 -1.23438,-0.29688 -1,0 -1.4375,0.28125 -0.29687,0.20313 -0.29687,0.51563 0,0.26562 0.25,0.46875 0.34375,0.25 2.39062,0.71875 2.04688,0.45312 2.85938,1.14062 0.79687,0.67188 0.79687,1.89063 0,1.34375 -1.10937,2.29687 -1.10938,0.95313 -3.28125,0.95313 -1.98438,0 -3.14063,-0.79688 -1.14062,-0.8125 -1.5,-2.1875 z m 17.64136,2.76563 v -1.45313 q -0.53125,0.78125 -1.39062,1.23438 -0.85938,0.4375 -1.8125,0.4375 -0.96875,0 -1.75,-0.42188 -0.76563,-0.4375 -1.125,-1.20312 -0.34375,-0.78125 -0.34375,-2.14063 v -6.125 h 2.5625 v 4.4375 q 0,2.04688 0.14062,2.51563 0.14063,0.45312 0.51563,0.71875 0.375,0.26562 0.95312,0.26562 0.65625,0 1.17188,-0.35937 0.51562,-0.35938 0.70312,-0.89063 0.20313,-0.53125 0.20313,-2.60937 v -4.07813 h 2.54687 v 9.67188 z m 4.13034,-2.76563 2.5625,-0.39062 q 0.17188,0.75 0.67188,1.14062 0.5,0.39063 1.40625,0.39063 0.98437,0 1.48437,-0.375 0.34375,-0.25 0.34375,-0.67188 0,-0.29687 -0.1875,-0.48437 -0.1875,-0.1875 -0.85937,-0.34375 -3.09375,-0.6875 -3.92188,-1.25 -1.14062,-0.78125 -1.14062,-2.17188 0,-1.26562 0.98437,-2.10937 1,-0.85938 3.07813,-0.85938 1.98437,0 2.95312,0.65625 0.96875,0.64063 1.32813,1.90625 l -2.40625,0.4375 q -0.15625,-0.5625 -0.59375,-0.85937 -0.42188,-0.29688 -1.23438,-0.29688 -1,0 -1.4375,0.28125 -0.29687,0.20313 -0.29687,0.51563 0,0.26562 0.25,0.46875 0.34375,0.25 2.39062,0.71875 2.04688,0.45312 2.85938,1.14062 0.79687,0.67188 0.79687,1.89063 0,1.34375 -1.10937,2.29687 -1.10938,0.95313 -3.28125,0.95313 -1.98438,0 -3.14063,-0.79688 -1.14062,-0.8125 -1.5,-2.1875 z"
       fill="#000000" />
  </g>
</svg>
